<svg width="372" height="141" viewBox="0 0 372 141" fill="none" xmlns="http://www.w3.org/2000/svg">
<path d="M313.059 84.9562V67.3062H315.839V84.9562H313.059V84.9562Z" fill="black"/>
<path d="M336.048 69.7762H330.178V84.9662H327.368V69.7762H321.479V67.3162H336.048V69.7762Z" fill="black"/>
<path d="M343.879 67.3162L348.749 76.1662L353.669 67.3162H356.729L350.139 78.6462V84.9562H347.359V78.5962L340.819 67.3162H343.879V67.3162Z" fill="black"/>
<path d="M303.619 71.2062C303.449 71.0262 303.209 70.8262 302.899 70.6262C302.589 70.4162 302.219 70.2262 301.799 70.0462C301.379 69.8662 300.919 69.7162 300.409 69.5962C299.909 69.4762 299.389 69.4262 298.859 69.4262C297.689 69.4262 296.819 69.6462 296.269 70.0662C295.719 70.4962 295.439 71.0962 295.439 71.8562C295.439 72.2862 295.529 72.6362 295.699 72.9062C295.869 73.1762 296.139 73.4162 296.509 73.6262C296.869 73.8362 297.329 74.0162 297.869 74.1762C298.419 74.3362 299.049 74.5062 299.779 74.6862C300.669 74.9062 301.479 75.1362 302.199 75.4062C302.919 75.6662 303.529 75.9962 304.019 76.3762C304.519 76.7562 304.899 77.2262 305.169 77.7762C305.439 78.3262 305.579 79.0062 305.579 79.7962C305.579 80.6862 305.409 81.4562 305.069 82.1062C304.729 82.7462 304.269 83.2762 303.679 83.6762C303.089 84.0862 302.409 84.3762 301.629 84.5662C300.849 84.7562 300.019 84.8562 299.129 84.8562C297.789 84.8562 296.499 84.6562 295.249 84.2462C293.999 83.8362 292.869 83.2462 291.859 82.4762L293.129 80.0962C293.339 80.3162 293.649 80.5462 294.059 80.8162C294.459 81.0762 294.939 81.3262 295.469 81.5462C296.009 81.7662 296.589 81.9562 297.219 82.1162C297.849 82.2762 298.499 82.3562 299.179 82.3562C300.269 82.3562 301.109 82.1662 301.709 81.7862C302.299 81.4062 302.599 80.8462 302.599 80.0962C302.599 79.6462 302.489 79.2762 302.269 78.9762C302.049 78.6762 301.729 78.4162 301.319 78.1962C300.909 77.9762 300.399 77.7662 299.809 77.5862C299.209 77.4062 298.539 77.2162 297.779 77.0162C296.899 76.7862 296.139 76.5362 295.489 76.2862C294.839 76.0262 294.299 75.7162 293.869 75.3562C293.439 74.9962 293.109 74.5662 292.889 74.0762C292.669 73.5862 292.559 72.9962 292.559 72.3062C292.559 71.4462 292.729 70.6862 293.059 70.0162C293.389 69.3462 293.839 68.7862 294.409 68.3262C294.979 67.8762 295.649 67.5262 296.429 67.2962C297.209 67.0662 298.049 66.9462 298.959 66.9462C300.149 66.9462 301.249 67.1362 302.259 67.5162C303.269 67.8962 304.149 68.3662 304.909 68.9262L303.639 71.2062H303.619Z" fill="black"/>
<path d="M310.859 37.5762H303.809V55.8662H299.559V37.5762H292.509V33.8162H310.859V37.5762Z" fill="black"/>
<path d="M320.019 33.8262H323.809L332.189 55.8762H327.779L325.729 50.3762H318.029L316.009 55.8762H311.599L320.009 33.8262H320.019ZM324.959 47.3662L321.919 38.7062L318.749 47.3662H324.959V47.3662Z" fill="black"/>
<path d="M351.259 37.5762H344.209V55.8662H339.959V37.5762H332.909V33.8162H351.259V37.5762Z" fill="black"/>
<path d="M371.629 52.1062V55.8662H356.319V33.8162H371.349V37.5762H360.609V42.8862H369.889V46.3662H360.609V52.1062H371.629V52.1062Z" fill="black"/>
<path d="M178.289 137.606V126.956H181.979C182.829 126.956 183.579 127.096 184.219 127.376C184.869 127.656 185.399 128.036 185.829 128.516C186.259 128.996 186.579 129.556 186.799 130.206C187.009 130.846 187.119 131.536 187.119 132.266C187.119 133.076 186.999 133.806 186.759 134.466C186.519 135.126 186.179 135.676 185.719 136.146C185.269 136.616 184.729 136.976 184.089 137.226C183.449 137.476 182.749 137.606 181.969 137.606H178.279H178.289ZM185.759 132.266C185.759 131.666 185.679 131.116 185.509 130.606C185.339 130.096 185.099 129.666 184.779 129.306C184.449 128.946 184.059 128.666 183.589 128.456C183.119 128.246 182.589 128.146 181.979 128.146H179.639V136.396H181.979C182.589 136.396 183.129 136.296 183.609 136.086C184.079 135.876 184.479 135.586 184.789 135.216C185.109 134.846 185.339 134.406 185.509 133.906C185.679 133.406 185.759 132.856 185.759 132.266Z" fill="black"/>
<path d="M188.819 128.306V126.656H190.139V128.306H188.819ZM188.819 137.606V129.776H190.139V137.606H188.819Z" fill="black"/>
<path d="M195.379 137.696C194.849 137.696 194.359 137.586 193.919 137.366C193.469 137.146 193.089 136.856 192.769 136.486C192.449 136.116 192.199 135.696 192.029 135.206C191.849 134.726 191.769 134.226 191.769 133.706C191.769 133.156 191.859 132.636 192.029 132.136C192.199 131.636 192.449 131.206 192.769 130.836C193.089 130.466 193.469 130.176 193.919 129.956C194.359 129.746 194.859 129.636 195.399 129.636C196.059 129.636 196.629 129.796 197.109 130.116C197.589 130.436 197.989 130.846 198.319 131.336V129.776H199.489V137.516C199.489 138.076 199.379 138.566 199.179 138.996C198.969 139.416 198.679 139.776 198.319 140.066C197.959 140.356 197.539 140.576 197.049 140.726C196.559 140.876 196.049 140.946 195.499 140.946C194.609 140.946 193.889 140.796 193.329 140.486C192.779 140.176 192.309 139.756 191.939 139.216L192.699 138.546C193.009 139.006 193.409 139.346 193.899 139.586C194.389 139.816 194.919 139.926 195.489 139.926C195.849 139.926 196.189 139.876 196.519 139.776C196.849 139.676 197.129 139.526 197.369 139.326C197.609 139.126 197.799 138.876 197.949 138.576C198.089 138.276 198.169 137.926 198.169 137.516V136.136C198.019 136.376 197.839 136.596 197.639 136.786C197.439 136.976 197.209 137.146 196.969 137.286C196.729 137.416 196.469 137.526 196.199 137.596C195.929 137.666 195.659 137.696 195.369 137.696H195.379ZM195.789 136.616C196.069 136.616 196.339 136.566 196.599 136.466C196.859 136.366 197.099 136.236 197.319 136.066C197.539 135.896 197.729 135.716 197.869 135.506C198.019 135.296 198.119 135.076 198.169 134.856V132.606C198.059 132.336 197.919 132.096 197.739 131.866C197.559 131.646 197.369 131.456 197.149 131.286C196.929 131.116 196.689 130.996 196.439 130.906C196.179 130.816 195.929 130.776 195.669 130.776C195.269 130.776 194.909 130.856 194.599 131.026C194.289 131.196 194.019 131.426 193.799 131.706C193.579 131.986 193.409 132.306 193.289 132.656C193.169 133.006 193.109 133.366 193.109 133.726C193.109 134.116 193.179 134.486 193.319 134.836C193.459 135.186 193.649 135.496 193.889 135.756C194.129 136.016 194.409 136.226 194.739 136.376C195.069 136.536 195.419 136.606 195.799 136.606L195.789 136.616Z" fill="black"/>
<path d="M201.629 128.306V126.656H202.949V128.306H201.629ZM201.629 137.606V129.776H202.949V137.606H201.629Z" fill="black"/>
<path d="M209.129 137.226C209.049 137.266 208.939 137.316 208.809 137.366C208.679 137.416 208.529 137.476 208.369 137.536C208.199 137.586 208.019 137.636 207.829 137.666C207.639 137.696 207.429 137.716 207.219 137.716C206.739 137.716 206.329 137.586 205.979 137.316C205.629 137.056 205.449 136.636 205.449 136.076V130.816H204.389V129.776H205.449V127.166H206.769V129.776H208.519V130.816H206.769V135.676C206.789 135.966 206.889 136.176 207.059 136.306C207.229 136.436 207.429 136.496 207.659 136.496C207.919 136.496 208.159 136.456 208.369 136.366C208.579 136.276 208.729 136.216 208.809 136.166L209.129 137.216V137.226Z" fill="black"/>
<path d="M212.369 137.766C211.999 137.766 211.659 137.706 211.329 137.576C210.999 137.446 210.729 137.276 210.499 137.056C210.269 136.836 210.079 136.576 209.949 136.286C209.819 135.996 209.749 135.666 209.749 135.316C209.749 134.966 209.829 134.626 209.989 134.336C210.149 134.046 210.379 133.786 210.669 133.576C210.959 133.366 211.319 133.196 211.719 133.076C212.119 132.956 212.569 132.896 213.049 132.896C213.429 132.896 213.809 132.936 214.199 132.996C214.589 133.066 214.929 133.166 215.239 133.286V132.656C215.239 132.016 215.059 131.516 214.699 131.146C214.339 130.776 213.829 130.596 213.169 130.596C212.379 130.596 211.549 130.896 210.679 131.516L210.249 130.656C211.259 129.976 212.269 129.636 213.289 129.636C214.309 129.636 215.119 129.916 215.699 130.466C216.279 131.016 216.559 131.796 216.559 132.786V135.986C216.559 136.296 216.699 136.456 216.979 136.466V137.606C216.839 137.626 216.719 137.646 216.629 137.646C216.539 137.646 216.439 137.656 216.339 137.656C216.079 137.656 215.869 137.576 215.719 137.426C215.559 137.276 215.469 137.086 215.439 136.866L215.409 136.316C215.059 136.786 214.619 137.146 214.079 137.386C213.539 137.636 212.969 137.756 212.359 137.756L212.369 137.766ZM212.719 136.776C213.189 136.776 213.629 136.686 214.029 136.516C214.429 136.346 214.739 136.106 214.949 135.816C215.139 135.626 215.239 135.436 215.239 135.236V134.076C214.599 133.826 213.939 133.696 213.249 133.696C212.559 133.696 212.049 133.836 211.639 134.116C211.219 134.396 211.019 134.766 211.019 135.206C211.019 135.426 211.059 135.636 211.149 135.826C211.229 136.016 211.349 136.186 211.509 136.326C211.659 136.466 211.849 136.576 212.059 136.656C212.269 136.736 212.499 136.776 212.739 136.776H212.719Z" fill="black"/>
<path d="M218.699 126.656H220.019V135.576C220.019 135.866 220.099 136.096 220.249 136.256C220.399 136.426 220.619 136.506 220.899 136.506C221.009 136.506 221.139 136.486 221.289 136.456C221.439 136.416 221.579 136.376 221.709 136.326L221.919 137.396C221.699 137.486 221.439 137.566 221.139 137.616C220.839 137.676 220.569 137.706 220.349 137.706C219.839 137.706 219.439 137.556 219.139 137.266C218.839 136.976 218.699 136.566 218.699 136.056V126.646V126.656Z" fill="black"/>
<path d="M225.819 132.206C225.819 131.566 225.929 130.926 226.159 130.296C226.379 129.666 226.709 129.086 227.149 128.586C227.589 128.086 228.119 127.676 228.749 127.366C229.379 127.056 230.099 126.906 230.899 126.906C231.849 126.906 232.659 127.116 233.339 127.546C234.019 127.976 234.529 128.536 234.859 129.226L233.799 129.916C233.639 129.576 233.449 129.296 233.219 129.066C232.999 128.836 232.749 128.646 232.489 128.506C232.219 128.366 231.949 128.266 231.669 128.206C231.389 128.146 231.119 128.116 230.849 128.116C230.259 128.116 229.739 128.236 229.279 128.486C228.819 128.736 228.439 129.056 228.129 129.446C227.819 129.846 227.589 130.286 227.429 130.786C227.269 131.276 227.199 131.776 227.199 132.276C227.199 132.836 227.289 133.366 227.479 133.876C227.659 134.376 227.919 134.826 228.249 135.216C228.579 135.606 228.969 135.916 229.419 136.146C229.869 136.376 230.359 136.486 230.889 136.486C231.169 136.486 231.459 136.446 231.749 136.376C232.039 136.306 232.329 136.196 232.599 136.036C232.869 135.876 233.119 135.686 233.359 135.456C233.599 135.216 233.789 134.936 233.939 134.606L235.059 135.226C234.889 135.626 234.649 135.976 234.349 136.286C234.049 136.586 233.699 136.846 233.309 137.056C232.919 137.266 232.519 137.426 232.089 137.536C231.659 137.646 231.239 137.706 230.829 137.706C230.099 137.706 229.429 137.546 228.819 137.226C228.209 136.906 227.679 136.486 227.239 135.976C226.789 135.466 226.449 134.876 226.199 134.226C225.949 133.566 225.829 132.906 225.829 132.226L225.819 132.206Z" fill="black"/>
<path d="M239.949 137.766C239.359 137.766 238.819 137.656 238.339 137.436C237.859 137.216 237.439 136.916 237.099 136.546C236.749 136.176 236.489 135.746 236.299 135.256C236.109 134.766 236.009 134.256 236.009 133.716C236.009 133.176 236.109 132.646 236.299 132.156C236.499 131.666 236.769 131.236 237.109 130.866C237.459 130.496 237.869 130.196 238.359 129.986C238.839 129.766 239.379 129.656 239.959 129.656C240.539 129.656 241.069 129.766 241.559 129.986C242.049 130.206 242.469 130.496 242.809 130.866C243.149 131.236 243.419 131.666 243.619 132.156C243.819 132.646 243.909 133.166 243.909 133.716C243.909 134.266 243.809 134.776 243.619 135.256C243.429 135.746 243.159 136.176 242.809 136.546C242.459 136.916 242.039 137.216 241.559 137.436C241.079 137.656 240.539 137.766 239.949 137.766V137.766ZM237.349 133.726C237.349 134.136 237.419 134.516 237.549 134.866C237.679 135.216 237.869 135.526 238.099 135.786C238.329 136.046 238.609 136.246 238.919 136.406C239.229 136.556 239.569 136.626 239.929 136.626C240.289 136.626 240.629 136.546 240.939 136.406C241.249 136.256 241.529 136.046 241.769 135.786C242.009 135.526 242.199 135.216 242.329 134.856C242.459 134.506 242.529 134.116 242.529 133.706C242.529 133.296 242.459 132.926 242.329 132.576C242.199 132.226 242.009 131.906 241.769 131.646C241.529 131.386 241.249 131.176 240.939 131.026C240.629 130.876 240.289 130.796 239.929 130.796C239.569 130.796 239.229 130.876 238.919 131.026C238.609 131.186 238.329 131.396 238.099 131.656C237.859 131.926 237.679 132.236 237.549 132.586C237.409 132.936 237.349 133.326 237.349 133.736V133.726Z" fill="black"/>
<path d="M249.649 130.936C248.989 130.956 248.409 131.126 247.899 131.446C247.399 131.766 247.039 132.206 246.829 132.776V137.606H245.509V129.776H246.739V131.596C247.009 131.056 247.359 130.616 247.809 130.286C248.249 129.956 248.719 129.766 249.219 129.726H249.479C249.549 129.726 249.609 129.726 249.659 129.736V130.936H249.649Z" fill="black"/>
<path d="M255.179 137.766C254.529 137.766 253.959 137.606 253.459 137.286C252.969 136.966 252.569 136.566 252.279 136.076V140.816H250.959V129.786H252.129V131.256C252.439 130.776 252.839 130.386 253.339 130.096C253.829 129.806 254.379 129.656 254.979 129.656C255.519 129.656 256.019 129.766 256.459 129.986C256.899 130.206 257.299 130.506 257.629 130.876C257.959 131.246 258.219 131.686 258.399 132.176C258.579 132.666 258.679 133.176 258.679 133.706C258.679 134.266 258.589 134.796 258.419 135.286C258.249 135.776 258.009 136.206 257.699 136.576C257.389 136.946 257.019 137.236 256.589 137.446C256.159 137.656 255.689 137.766 255.169 137.766H255.179ZM254.769 136.626C255.159 136.626 255.509 136.546 255.829 136.376C256.139 136.206 256.409 135.996 256.639 135.716C256.869 135.436 257.039 135.126 257.159 134.776C257.279 134.426 257.339 134.066 257.339 133.696C257.339 133.306 257.269 132.936 257.129 132.576C256.989 132.216 256.799 131.906 256.559 131.646C256.319 131.386 256.039 131.176 255.709 131.016C255.389 130.866 255.029 130.786 254.649 130.786C254.409 130.786 254.159 130.836 253.909 130.926C253.649 131.026 253.409 131.146 253.189 131.306C252.969 131.466 252.769 131.646 252.599 131.856C252.439 132.076 252.329 132.296 252.279 132.536V134.776C252.389 135.036 252.529 135.276 252.699 135.506C252.869 135.736 253.069 135.926 253.289 136.086C253.509 136.256 253.749 136.376 253.999 136.476C254.249 136.576 254.509 136.616 254.779 136.616L254.769 136.626Z" fill="black"/>
<path d="M263.049 137.766C262.419 137.766 261.799 137.666 261.189 137.476C260.579 137.286 260.059 136.996 259.619 136.626L260.189 135.746C260.649 136.096 261.109 136.356 261.569 136.536C262.029 136.716 262.519 136.796 263.029 136.796C263.599 136.796 264.049 136.686 264.389 136.456C264.729 136.226 264.889 135.916 264.889 135.506C264.889 135.316 264.849 135.156 264.759 135.016C264.669 134.876 264.539 134.766 264.359 134.666C264.179 134.566 263.949 134.476 263.669 134.396C263.389 134.316 263.059 134.226 262.689 134.136C262.219 134.016 261.809 133.906 261.479 133.796C261.139 133.686 260.859 133.556 260.639 133.406C260.419 133.256 260.259 133.076 260.159 132.866C260.059 132.656 260.009 132.396 260.009 132.086C260.009 131.696 260.089 131.346 260.239 131.046C260.389 130.736 260.609 130.486 260.879 130.276C261.149 130.076 261.469 129.916 261.829 129.816C262.199 129.716 262.589 129.656 263.009 129.656C263.599 129.656 264.149 129.746 264.659 129.946C265.169 130.136 265.599 130.386 265.949 130.696L265.349 131.486C265.019 131.196 264.649 130.976 264.239 130.836C263.829 130.686 263.409 130.616 262.979 130.616C262.499 130.616 262.089 130.716 261.759 130.926C261.429 131.136 261.259 131.456 261.259 131.906C261.259 132.086 261.289 132.236 261.359 132.356C261.429 132.476 261.529 132.576 261.679 132.666C261.829 132.756 262.019 132.836 262.259 132.906C262.499 132.976 262.779 133.056 263.109 133.126C263.629 133.246 264.079 133.366 264.469 133.496C264.859 133.626 265.179 133.766 265.429 133.936C265.689 134.106 265.879 134.306 265.999 134.536C266.119 134.766 266.189 135.046 266.189 135.376C266.189 136.106 265.909 136.686 265.349 137.116C264.789 137.546 264.039 137.766 263.079 137.766H263.049Z" fill="black"/>
<path d="M184.759 82.2962C185.689 82.2962 186.449 82.1162 187.069 81.7462C187.679 81.3862 188.169 80.9062 188.549 80.3162C188.929 79.7262 189.189 79.0562 189.339 78.3062C189.499 77.5562 189.579 76.7762 189.579 75.9862V67.0562H192.379V75.9862C192.379 77.1962 192.239 78.3262 191.959 79.3962C191.679 80.4662 191.229 81.3962 190.619 82.1962C190.009 82.9962 189.219 83.6262 188.249 84.0962C187.279 84.5562 186.119 84.7862 184.769 84.7862C183.419 84.7862 182.179 84.5462 181.209 84.0562C180.239 83.5662 179.459 82.9162 178.869 82.0962C178.279 81.2762 177.839 80.3362 177.579 79.2862C177.319 78.2362 177.179 77.1262 177.179 75.9862V67.0562H179.959V75.9862C179.959 76.7962 180.039 77.5762 180.199 78.3262C180.359 79.0762 180.619 79.7462 180.989 80.3362C181.359 80.9262 181.859 81.3962 182.479 81.7462C183.099 82.1062 183.859 82.2762 184.769 82.2762L184.759 82.2962Z" fill="black"/>
<path d="M203.449 72.2762V84.6762H200.669V67.0662H202.849L212.919 79.7662V67.0962H215.719V84.6762H213.409L203.439 72.2762H203.449Z" fill="black"/>
<path d="M223.409 84.6762V67.0662H226.189V84.6762H223.409Z" fill="black"/>
<path d="M234.999 67.0662L240.309 81.1762L245.589 67.0662H248.539L241.499 84.6762H239.119L232.049 67.0662H234.999Z" fill="black"/>
<path d="M266.489 82.2162V84.6762H254.409V67.0662H266.259V69.5262H257.179V74.5362H265.039V76.8462H257.179V82.2262H266.479L266.489 82.2162Z" fill="black"/>
<path d="M273.089 84.6762V67.0662H280.749C281.539 67.0662 282.279 67.2362 282.939 67.5662C283.609 67.8962 284.179 68.3262 284.659 68.8662C285.139 69.4062 285.519 70.0162 285.789 70.7062C286.059 71.3962 286.199 72.0862 286.199 72.8062C286.199 73.4062 286.119 73.9762 285.949 74.5162C285.779 75.0662 285.549 75.5662 285.259 76.0262C284.959 76.4862 284.599 76.8862 284.169 77.2262C283.739 77.5662 283.269 77.8162 282.759 77.9862L286.899 84.6862H283.749L279.929 78.5562H275.859V84.6862H273.079L273.089 84.6762ZM275.869 76.0962H280.729C281.129 76.0962 281.489 76.0062 281.809 75.8362C282.129 75.6662 282.409 75.4262 282.639 75.1162C282.869 74.8062 283.049 74.4562 283.189 74.0662C283.319 73.6662 283.389 73.2462 283.389 72.8062C283.389 72.3662 283.309 71.9362 283.149 71.5462C282.989 71.1462 282.789 70.8062 282.529 70.5062C282.269 70.2062 281.979 69.9762 281.639 69.7962C281.299 69.6262 280.949 69.5362 280.589 69.5362H275.879V76.1062L275.869 76.0962Z" fill="black"/>
<path d="M114.699 70.0962C114.229 70.0962 113.839 70.4762 113.839 70.9462C113.839 71.4162 114.229 71.7962 114.699 71.7962C115.179 71.7962 115.559 71.4162 115.559 70.9462C115.559 70.4762 115.169 70.0962 114.699 70.0862V70.0962Z" fill="#BA0C2F"/>
<path d="M112.479 70.7362C111.999 70.7362 111.619 71.1162 111.619 71.5862C111.619 72.0562 111.999 72.4362 112.479 72.4362C112.949 72.4362 113.339 72.0562 113.339 71.5862C113.339 71.1162 112.949 70.7362 112.479 70.7362Z" fill="#BA0C2F"/>
<path d="M110.339 70.0862C109.869 70.0862 109.479 70.4662 109.479 70.9362C109.479 71.4062 109.869 71.7862 110.339 71.7862C110.819 71.7862 111.199 71.4062 111.199 70.9362C111.199 70.4662 110.819 70.0862 110.339 70.0862Z" fill="#BA0C2F"/>
<path d="M115.839 68.0862C115.359 68.0862 114.979 68.4662 114.979 68.9362C114.979 69.4062 115.369 69.7962 115.839 69.7962C116.309 69.7962 116.699 69.4162 116.699 68.9462C116.699 68.4762 116.309 68.0962 115.839 68.0962V68.0862Z" fill="#BA0C2F"/>
<path d="M109.889 69.0062C109.889 68.5362 109.499 68.1562 109.029 68.1562C108.549 68.1562 108.159 68.5362 108.159 69.0062C108.159 69.4762 108.549 69.8662 109.019 69.8662C109.489 69.8662 109.879 69.4862 109.879 69.0162L109.889 69.0062Z" fill="#BA0C2F"/>
<path d="M118.689 70.1762C118.209 70.1762 117.829 70.5562 117.829 71.0262C117.829 71.4962 118.219 71.8862 118.689 71.8862C119.159 71.8862 119.549 71.5062 119.549 71.0362C119.549 70.5662 119.159 70.1862 118.689 70.1862V70.1762Z" fill="#BA0C2F"/>
<path d="M118.689 68.0162C118.209 68.0162 117.829 68.3962 117.829 68.8662C117.829 69.3362 118.219 69.7262 118.689 69.7262C119.159 69.7262 119.549 69.3462 119.549 68.8762C119.549 68.4062 119.159 68.0262 118.689 68.0262V68.0162Z" fill="#BA0C2F"/>
<path d="M118.689 72.3462C118.209 72.3462 117.829 72.7262 117.829 73.1962C117.829 73.6662 118.219 74.0462 118.689 74.0462C119.159 74.0462 119.549 73.6662 119.549 73.1962C119.549 72.7262 119.159 72.3462 118.689 72.3462Z" fill="#BA0C2F"/>
<path d="M40.2286 52.8862C40.2286 52.8162 40.1986 52.7462 40.1386 52.6862C39.0886 51.6362 37.9386 50.3462 37.1286 49.1262C37.0786 49.0462 36.9886 48.9962 36.8886 48.9962C36.8186 48.9962 36.7586 48.9962 36.6886 48.9962V54.9762C36.6786 63.0162 37.1786 68.8862 38.5786 75.5262C38.5886 75.5762 38.6586 75.5962 38.6886 75.5562L41.6186 72.1062C41.6186 72.1062 41.6386 72.0762 41.6286 72.0562C40.5286 66.2062 40.2786 61.9162 40.2786 54.9862L40.2086 52.8962L40.2286 52.8862Z" fill="#BA0C2F"/>
<path d="M125.629 56.7562L128.709 60.1462C128.799 60.2462 128.969 60.1862 128.969 60.0562C129.059 57.7662 129.189 50.3362 129.219 48.8462C129.219 48.7362 129.099 48.6762 129.009 48.7362C128.339 49.1962 126.239 50.6262 125.719 50.8762C125.649 50.9062 125.609 50.9662 125.609 51.0462C125.609 51.8062 125.629 55.3662 125.579 56.6662C125.579 56.7062 125.589 56.7362 125.619 56.7662L125.629 56.7562Z" fill="#BA0C2F"/>
<path d="M126.829 79.0962L123.489 79.0162C123.489 79.0162 123.409 79.0362 123.399 79.0762C123.329 79.3162 123.109 80.1562 123.109 80.1762C119.079 97.3762 110.929 107.706 103.869 115.756C94.8686 125.996 85.7686 131.376 82.9686 132.886C82.9086 132.916 82.8386 132.916 82.7886 132.886C79.9886 131.366 70.8986 125.976 61.9186 115.716C55.5986 108.486 49.4586 99.1262 45.1786 84.5862C45.1686 84.5362 45.1186 84.5062 45.0586 84.5062C44.8186 84.5262 44.1286 84.6562 43.4186 85.3762C42.6486 86.1562 42.3386 87.1262 42.2786 87.3562C42.2786 87.3862 42.2786 87.4262 42.2786 87.4562C46.7886 102.006 52.8486 110.836 59.2986 118.176C70.5186 130.956 81.6186 136.336 82.0886 136.556L82.7786 136.886C82.8386 136.916 82.8986 136.916 82.9486 136.886L83.6386 136.556C84.1086 136.336 95.2286 130.976 106.469 118.216C114.099 109.556 122.769 99.2962 126.989 79.2062C127.009 79.1162 126.909 79.0362 126.819 79.0862L126.829 79.0962Z" fill="#BA0C2F"/>
<path d="M54.9086 18.4062C56.7686 19.1562 58.6086 19.9362 60.4286 20.7562C60.4486 20.7662 60.4786 20.7662 60.4986 20.7662C66.5786 19.8362 74.3686 18.6662 82.9686 18.6762C95.0086 18.6862 101.049 19.4062 107.949 20.5362C107.969 20.5362 107.999 20.5362 108.019 20.5362L113.039 18.5062C113.159 18.4562 113.149 18.2862 113.019 18.2562C105.639 16.4862 97.3286 15.1362 82.9686 15.1162C72.4886 15.1062 62.0086 16.8662 54.9186 18.1762C54.7886 18.1962 54.7686 18.3762 54.8986 18.4262L54.9086 18.4062Z" fill="#BA0C2F"/>
<path d="M55.9786 35.2462C55.2386 35.9762 46.3786 44.4962 29.1586 39.8462C25.4986 39.0762 32.0986 43.5362 38.4986 44.9662C48.3386 47.1662 58.4286 43.5262 60.3886 42.5462C60.3886 42.5462 52.9986 48.8762 42.6686 48.3762C39.6486 48.1262 39.5986 48.0062 40.9486 49.3462C41.8186 50.2062 44.2686 51.7262 45.8686 52.5162C50.2986 54.7162 52.1986 54.6862 55.2186 54.2262C58.4186 53.7462 63.0386 50.6662 65.0386 50.2062C65.4986 50.0962 66.6786 49.5462 66.8486 49.4862C67.2486 49.3262 67.4586 48.8862 67.3286 48.4762C66.1786 44.9562 64.2186 37.6762 59.8586 30.7562C57.2086 26.5462 48.4786 22.5562 36.1586 18.8962C26.7186 16.0862 16.8386 12.2662 12.3886 10.4562C8.14857 8.72616 9.60857 8.96616 13.4986 10.0562C19.2286 11.6562 25.8986 14.7462 36.4886 17.7762C46.3186 20.5962 58.3986 24.3062 62.1786 30.2362C67.0786 37.9262 69.9986 44.2362 71.5286 45.8362C73.0586 47.4362 72.3886 48.3262 71.5386 49.1262C71.3086 49.3462 73.3186 49.6462 75.1286 48.9362C75.7886 48.6762 76.7186 47.8662 76.7286 46.8362C76.7486 45.0962 75.5986 44.8762 74.4686 43.9162C72.0486 42.3062 68.4086 35.5662 64.3786 28.2762C59.9986 20.3762 42.0786 17.8662 20.1586 9.61616C15.1886 7.74616 9.55857 5.79616 5.26857 2.14616C0.308566 -2.06384 -1.11143 0.746161 0.848566 3.54616C1.68857 4.75616 2.34857 5.36616 3.13857 6.59616C3.04857 6.74616 2.96857 6.89616 2.90857 7.05616C2.20857 9.00616 4.08857 11.4962 7.24857 13.0662C7.14857 13.2462 7.05857 13.4262 6.99857 13.6262C6.37857 15.7462 8.76857 18.3362 12.4286 19.6262C12.3386 19.8062 12.2686 19.9962 12.2186 20.1962C11.8886 21.6162 12.8986 23.1562 14.6886 24.3462C15.3686 27.5462 18.9486 28.9162 21.7486 29.7762C31.6386 33.2662 47.8686 30.8462 48.6086 30.8462C46.3886 33.0362 33.8486 36.9262 21.5486 32.2862C18.6586 31.1362 22.5286 36.1862 31.1386 37.8962C43.4386 40.3462 55.2486 35.2362 55.9886 35.2362L55.9786 35.2462Z" fill="#BA0C2F"/>
<path d="M161.019 2.88616C156.729 6.53616 151.099 8.48616 146.129 10.3562C124.219 18.6062 106.289 21.1262 101.909 29.0162C98.2286 35.6462 94.8886 41.8362 92.4986 44.1062V44.0762C92.2386 44.3162 91.9886 44.5262 91.7586 44.6762C91.4686 44.9162 91.1786 45.1162 90.9086 45.3062V45.2862C90.7186 45.3462 90.5386 45.3562 90.3786 45.3262C89.2786 45.0762 89.4186 43.4562 89.2586 41.4062C89.2286 41.0062 88.7086 40.8562 88.4686 41.1762C88.4386 41.2162 88.3986 41.2662 88.3686 41.3162C88.2686 41.4462 88.2186 41.6062 88.2286 41.7662C88.3086 42.7162 88.4986 46.1762 87.1786 49.7262C86.2486 52.2362 83.0786 54.7162 79.3786 55.8862C78.5786 56.2162 78.7086 55.9462 79.4286 55.5162C86.6886 51.2662 85.7086 47.7062 85.7786 43.6662C85.7786 43.6662 85.8086 43.4662 85.6686 43.5962C85.1686 44.3262 84.4886 45.1762 82.5686 45.7462C82.4686 45.7762 82.3386 45.7462 82.4686 45.5862C82.8486 45.0862 83.6786 43.7862 83.9486 41.4962C84.1286 40.0362 83.2586 39.0762 83.9486 37.4562C84.8186 35.4062 85.9086 36.2462 85.7086 34.8862C85.4686 33.2862 82.6086 32.5062 79.9886 34.1062C77.3686 35.7062 75.7286 32.8062 80.0286 31.3862C82.4586 30.5862 86.0186 31.3362 87.7086 34.5762C87.8286 34.7962 88.0986 34.8762 88.3186 34.7562C89.8086 33.9262 90.7986 35.1562 90.3386 37.3162C91.2786 35.9262 91.6786 33.9462 90.6086 33.4562C91.9086 32.0662 92.2486 30.5662 91.6986 28.5162C91.6386 28.3062 91.4386 28.3362 91.3686 28.4762C91.0186 29.1362 90.0486 30.0362 89.5886 30.3362C88.3286 31.4062 86.8786 30.9062 86.7986 30.8962C86.7986 30.8962 86.7786 30.8962 86.7686 30.8962C86.6986 30.8862 86.6486 30.8062 86.7486 30.8162C87.2286 30.8562 87.7186 30.7562 88.0986 30.4562C90.0086 28.9662 90.7186 27.3262 88.5386 26.1562C87.7586 25.7362 87.7986 25.8362 86.8286 24.6462C83.7286 20.8262 74.8486 23.2862 74.1586 27.4962C74.1386 27.6162 74.0786 27.7162 73.9786 27.7862C70.7886 30.1462 72.0586 34.7662 73.9086 36.1962C73.9986 36.2662 74.0586 36.3562 74.0786 36.4562C74.4986 38.6062 75.7086 42.5562 78.4186 44.8362C82.0186 47.8562 78.2786 50.0962 75.1186 50.4762H75.0786C66.0186 50.9362 61.7786 53.5662 59.0586 58.3562C59.0586 58.3562 59.0586 58.3562 59.0786 58.3662C52.7186 69.9662 50.8286 67.3762 46.8586 70.7662C46.4886 71.0862 46.1386 71.4062 45.8086 71.7162C45.7286 71.7962 45.6486 71.8762 45.5686 71.9462C45.2586 72.2562 44.9586 72.5562 44.6786 72.8562L44.6486 72.8962C44.3686 73.1962 44.1086 73.4962 43.8486 73.7962C43.7786 73.8762 43.7086 73.9562 43.6486 74.0362C41.5586 76.4962 40.0686 78.7262 36.7586 80.3062C36.6486 80.3562 36.5186 80.3662 36.4086 80.3162C32.6386 78.9262 31.6886 82.0162 26.1886 81.7262C25.8286 81.7062 25.5886 82.0962 25.7886 82.3962C26.6786 83.6762 29.5486 83.5762 30.4986 83.3162C31.6786 82.9962 31.3186 82.8362 29.6486 85.5562C29.6486 85.5662 29.2886 86.3562 29.2786 86.3662C27.4586 90.1362 24.2986 89.1362 24.1786 90.7662C24.1586 91.0662 24.3386 92.3562 26.3686 92.0862C28.0986 91.8562 30.0486 94.9162 35.5586 91.1262C37.6786 89.6662 38.9186 86.6262 40.2886 84.8062C41.3586 83.3762 43.0086 82.2662 44.8586 81.3062C44.8786 81.3062 44.8986 81.2862 44.9186 81.2862C53.4286 78.3462 60.0486 73.4062 61.6786 72.2662C61.9886 72.0462 62.0486 71.9462 62.0686 71.8462C63.7086 60.6462 80.8086 56.7762 87.1286 55.6662C88.5086 55.4262 89.4686 55.4762 87.8086 55.9162C84.5586 56.7762 77.7686 58.5962 72.9886 61.4262C66.0286 65.5462 62.4686 70.7962 64.5086 74.7362C65.8886 77.3962 68.4586 77.8962 68.0586 79.4762C67.7886 82.2362 62.4586 93.0162 62.5386 95.7362C62.6286 98.4562 64.4186 100.026 64.2986 102.696C64.1686 105.366 62.1086 108.016 61.0186 110.196C62.5686 112.146 63.8686 113.716 65.3286 115.316C65.5786 115.596 66.0486 115.446 66.0886 115.086C66.6386 110.656 68.6186 99.2362 69.7286 95.2062C71.0086 90.5762 74.1786 80.3062 74.3986 79.4162C74.9586 77.1562 77.2986 72.6162 75.2286 79.6562C74.9586 80.5662 72.5586 91.6862 71.8586 95.9162C71.1586 100.086 69.9686 115.226 69.9086 119.746C69.9086 119.866 69.9486 119.976 70.0386 120.056C70.9886 120.986 72.2586 121.996 73.2786 122.866C73.5586 123.106 73.9986 122.906 73.9986 122.536C74.0486 116.656 74.4086 107.496 74.9586 99.8762C75.8186 88.0762 80.7586 71.3562 81.1186 70.3562C81.6086 68.9962 82.2086 68.0562 81.6986 70.8162C81.5186 71.8062 78.2086 89.3562 77.7986 100.846C77.5086 108.986 78.4886 117.636 79.2686 127.626C79.2686 127.756 79.3486 127.876 79.4486 127.946L82.6586 130.236C82.7986 130.336 82.9886 130.346 83.1386 130.256C83.5086 130.036 84.2686 129.576 85.3386 128.836C81.4186 106.276 80.2086 87.4862 87.4686 65.1862C88.1586 63.0762 88.9486 62.6162 88.1186 65.3062C82.2786 84.2562 83.8286 102.736 89.5986 124.856C89.6786 125.166 90.0486 125.286 90.2986 125.086C91.6586 124.026 92.5586 123.496 92.6386 123.136C93.2786 120.156 93.2486 114.176 92.6786 108.156C92.0986 102.006 90.9586 95.8062 89.3986 92.7162C87.9986 89.9362 88.1486 89.0362 90.0586 92.0662C92.0286 95.1862 93.6386 100.986 94.6786 106.566C95.7486 112.286 96.2186 117.786 95.8886 119.926C95.7186 121.036 98.9086 116.946 99.9186 115.806C99.9886 115.726 100.029 115.616 100.029 115.506C99.9186 112.146 99.1486 109.176 98.5486 105.556V105.526C97.0886 99.1462 93.3086 89.9462 91.9386 87.7862C91.6586 87.3462 91.4486 86.9762 91.2886 86.6562C90.5486 85.1862 91.0486 85.0662 91.9586 86.3362C92.1186 86.5562 92.2886 86.8262 92.4686 87.1362C93.7786 89.3962 97.2086 94.5162 100.129 103.576C100.969 106.196 101.769 108.816 102.349 111.886C102.419 112.236 102.859 112.366 103.109 112.096C104.129 110.986 104.369 110.756 105.659 109.106C105.739 109.006 105.769 108.866 105.739 108.746C105.359 107.176 103.649 100.046 100.219 93.6662C98.9386 91.2862 97.8286 88.8262 97.0386 86.2462C94.9586 79.4862 95.0186 74.2962 98.7086 69.9862C99.2086 71.1562 99.0686 70.9362 100.489 76.5662C101.019 78.6662 104.289 78.6562 105.459 78.6562C108.729 78.6562 110.519 80.2862 112.559 79.8462C112.989 79.7562 113.439 79.8462 113.879 79.8662C115.949 80.0062 116.569 79.5562 117.009 77.4262C117.039 77.2862 117.149 77.1162 117.279 76.9362C117.519 77.0062 117.799 77.0462 118.089 77.0462C118.979 77.0462 119.709 76.6862 119.789 76.2262C121.979 76.2362 125.929 76.2662 126.679 76.2662C126.759 76.2662 126.839 76.2462 126.899 76.2062L128.449 75.2662C128.449 75.2662 128.479 75.2462 128.489 75.2462C128.629 75.1762 129.479 74.7562 129.479 74.2562L129.739 67.8662V67.7562L130.029 65.9762C130.049 65.8462 130.009 65.7262 129.929 65.6262L123.949 58.7062C123.859 58.6062 123.729 58.5462 123.599 58.5562L110.589 58.9962H107.009C106.959 59.0362 106.729 58.4062 106.589 57.8462C106.439 57.2162 106.279 56.2062 105.979 55.4962C105.679 54.7862 104.519 52.2162 100.059 51.3162C96.3286 50.5662 94.0186 49.1262 93.8786 48.1062C93.9486 47.6762 94.2086 47.1862 94.7686 46.5962C96.2986 44.9962 99.2086 38.6862 104.119 30.9962C107.899 25.0762 119.979 21.3562 129.809 18.5362C140.399 15.4962 147.069 12.4162 152.799 10.8162C156.689 9.72616 158.149 9.48616 153.909 11.2162C149.469 13.0262 139.579 16.8562 130.139 19.6562C117.819 23.3162 109.089 27.3062 106.439 31.5162C102.089 38.4262 98.0686 44.1962 96.9186 47.7062C96.7886 48.1162 96.9986 48.5562 97.3986 48.7162C97.5586 48.7762 98.7486 49.3362 99.2086 49.4362C101.219 49.8962 106.349 53.4762 109.549 53.9662C112.569 54.4262 114.469 54.4462 118.899 52.2562C120.499 51.4662 122.949 49.9462 123.819 49.0862C125.169 47.7462 125.119 47.8662 122.099 48.1162C111.769 48.6162 105.919 43.3062 105.919 43.3062C107.889 44.2762 117.979 47.9262 127.809 45.7262C134.209 44.2962 140.809 39.8262 137.149 40.6062C119.939 45.2562 111.069 36.7362 110.329 36.0062C111.069 36.0062 122.879 41.1062 135.179 38.6662C143.789 36.9562 147.659 31.9062 144.769 33.0562C132.479 37.6962 119.929 33.8062 117.709 31.6162C118.449 31.6162 134.679 34.0362 144.569 30.5462C147.369 29.6862 150.949 28.3162 151.629 25.1162C153.419 23.9262 154.419 22.3862 154.099 20.9662C154.049 20.7662 153.979 20.5762 153.889 20.3962C157.559 19.0962 159.949 16.5162 159.319 14.3962C159.259 14.1962 159.179 14.0162 159.069 13.8362C162.219 12.2662 164.099 9.77616 163.409 7.82616C163.349 7.66616 163.269 7.51616 163.179 7.36616C163.959 6.13616 164.619 5.51616 165.469 4.31616C167.429 1.51616 165.999 -1.29384 161.039 2.92616L161.019 2.88616ZM76.2586 32.9962C76.1486 33.5262 76.1686 34.0462 76.2886 34.5462V34.5662C76.2886 34.6062 76.2286 34.6162 76.1986 34.5762C75.5886 33.9562 75.1986 33.1362 75.1486 32.2462C75.1486 32.0962 75.1486 31.9462 75.1486 31.7962C75.1586 31.6462 75.1786 31.4962 75.2086 31.3362C75.2286 31.2362 75.2486 31.1462 75.2786 31.0562C75.3086 30.9662 75.3386 30.8762 75.3686 30.7862C75.6986 29.9062 76.3586 29.2162 77.1686 28.8262H77.1786C77.5086 28.6662 77.8586 28.5562 78.2286 28.4962C78.6086 28.4362 79.0186 28.4062 79.2286 28.3962C79.6586 28.3862 80.0686 28.3862 80.4586 28.3662C81.5186 28.3362 82.4586 28.2062 83.2986 27.4262C83.3786 27.3562 83.4486 27.2762 83.5286 27.1962C83.5786 27.1362 83.6286 27.0762 83.6586 27.0162C83.6586 27.0062 83.6686 26.9862 83.6786 26.9762C83.6986 26.9262 83.7286 26.8862 83.7386 26.8362C83.7386 26.8162 83.7386 26.7962 83.7486 26.7762C83.7586 26.7362 83.7686 26.6862 83.7786 26.6462C83.7786 26.6262 83.7786 26.5962 83.7786 26.5762C83.7786 26.5362 83.7786 26.4962 83.7786 26.4562C83.7786 26.4262 83.7786 26.4062 83.7686 26.3762C83.7686 26.3362 83.7686 26.2962 83.7486 26.2562C83.7486 26.2262 83.7386 26.2062 83.7286 26.1762C83.7286 26.1362 83.7086 26.0962 83.6986 26.0662C83.6986 26.0362 83.6786 26.0162 83.6686 25.9862C83.6586 25.9462 83.6386 25.9162 83.6286 25.8762C83.6186 25.8462 83.5986 25.8262 83.5886 25.7962C83.5686 25.7562 83.5586 25.7262 83.5386 25.6862C83.5286 25.6562 83.5086 25.6262 83.4886 25.6062C83.4686 25.5762 83.4586 25.5362 83.4386 25.5062C83.4186 25.4662 83.3986 25.4362 83.3786 25.3962C83.3686 25.3762 83.3486 25.3462 83.3386 25.3262C83.3186 25.2862 83.2886 25.2462 83.2686 25.2062L83.2186 25.1162C83.2186 25.1162 83.1686 25.0362 83.1486 24.9962C83.1386 24.9762 83.1186 24.9562 83.1086 24.9262C83.0886 24.8962 83.0786 24.8762 83.0586 24.8462C83.0486 24.8262 83.0386 24.8062 83.0286 24.7862C83.0186 24.7662 82.9986 24.7362 82.9886 24.7162C82.9886 24.6962 82.9686 24.6762 82.9686 24.6662C82.9686 24.6462 82.9486 24.6262 82.9386 24.6062C82.9386 24.5862 82.9386 24.5762 82.9286 24.5562C82.9286 24.5362 82.9186 24.5162 82.9186 24.5062C82.9186 24.4362 82.9486 24.4262 83.0086 24.4362H83.0386C83.0386 24.4362 83.1286 24.4862 83.1786 24.5062C83.2286 24.5262 83.2686 24.5462 83.3186 24.5662C83.3686 24.5862 83.4086 24.6162 83.4586 24.6362C83.5086 24.6562 83.5486 24.6862 83.5986 24.7062C83.6486 24.7362 83.6886 24.7662 83.7386 24.7962C83.7786 24.8262 83.8286 24.8562 83.8686 24.8862C83.9086 24.9162 83.9586 24.9562 83.9986 24.9862C84.0386 25.0162 84.0786 25.0462 84.1286 25.0762C84.1686 25.1062 84.2086 25.1462 84.2486 25.1862C84.2886 25.2162 84.3286 25.2562 84.3686 25.2862C84.4086 25.3262 84.4386 25.3662 84.4786 25.3962C84.5186 25.4362 84.5486 25.4662 84.5886 25.5062C84.6286 25.5462 84.6586 25.5862 84.6886 25.6262C84.7186 25.6662 84.7586 25.7062 84.7886 25.7462C84.8186 25.7862 84.8486 25.8362 84.8786 25.8762C84.9086 25.9162 84.9386 25.9562 84.9586 25.9962C84.9886 26.0362 85.0086 26.0862 85.0286 26.1362C85.0486 26.1762 85.0786 26.2162 85.0986 26.2562C85.1186 26.3062 85.1386 26.3462 85.1586 26.3962C85.1786 26.4362 85.1986 26.4762 85.2086 26.5162C85.2286 26.5662 85.2386 26.6062 85.2486 26.6562C85.2586 26.6962 85.2786 26.7362 85.2786 26.7762C85.2786 26.8262 85.2886 26.8662 85.2986 26.9162C85.2986 26.9562 85.3086 26.9962 85.3186 27.0362C85.3186 27.0862 85.3186 27.1262 85.3186 27.1762C85.3186 27.2162 85.3186 27.2562 85.3186 27.2962C85.3186 27.3462 85.2986 27.3862 85.2886 27.4362C85.2886 27.4762 85.2786 27.5062 85.2686 27.5462C85.2586 27.5862 85.2286 27.6362 85.2086 27.6762C85.1886 27.7062 85.1786 27.7462 85.1686 27.7862C85.1386 27.8362 85.1086 27.8762 85.0786 27.9162C85.0586 27.9462 85.0386 27.9762 85.0186 28.0062C84.7086 28.3762 84.3086 28.6662 83.8286 28.9062C83.6386 29.0062 83.4386 29.0862 83.2386 29.1662C81.5886 29.8162 79.4386 30.0662 77.9486 30.8862C77.7886 30.9762 77.6386 31.0662 77.4986 31.1662C77.4586 31.1962 77.4186 31.2262 77.3786 31.2562C76.8286 31.6762 76.4286 32.2362 76.2786 32.9862L76.2586 32.9962ZM79.3486 39.5962C79.1186 39.6162 78.9286 39.4362 78.9386 39.2162L78.9186 35.8162C78.9086 35.5362 79.1386 35.6862 79.1786 35.8162L80.8286 39.1462C80.8586 39.2362 80.7186 39.4662 80.6186 39.4662L79.3586 39.6062L79.3486 39.5962ZM34.6186 90.0062C34.0086 90.6762 32.0286 91.9562 30.7386 92.0062C29.4386 92.0562 28.1686 91.5462 28.5086 90.7062C28.8486 89.8662 30.8686 90.2762 32.0886 89.8262C33.8886 89.1662 38.2186 86.0562 34.6186 89.9962V90.0062ZM36.8186 84.3262C36.0486 84.5162 35.8186 83.1862 33.8486 82.5562C33.3486 82.3962 32.2886 82.7462 32.0486 82.3762C31.8086 82.0062 32.7286 81.6062 32.7286 81.6062C32.7286 81.6062 34.3686 80.9662 35.0786 80.9962C35.7886 81.0262 37.1286 81.5162 37.4586 82.0062C38.1886 83.0762 37.5886 84.1362 36.8186 84.3262V84.3262ZM55.2986 70.8762V70.8962C55.2686 71.0762 55.1686 71.2662 54.9886 71.4762C54.8986 71.5762 54.7986 71.6762 54.6986 71.7762L54.6286 71.8462C54.5286 71.9462 54.4286 72.0462 54.3186 72.1462C54.2086 72.2562 54.0886 72.3562 53.9586 72.4662L53.8886 72.5262C53.7686 72.6262 53.6386 72.7362 53.5186 72.8362C53.3886 72.9462 53.2486 73.0462 53.1086 73.1562L53.0286 73.2162C52.8986 73.3162 52.7586 73.4162 52.6186 73.5162C52.4786 73.6262 52.3286 73.7262 52.1786 73.8262L52.0986 73.8862C51.9586 73.9862 51.8086 74.0862 51.6686 74.1762C51.5186 74.2862 51.3686 74.3862 51.2186 74.4762L51.1386 74.5262C50.9986 74.6162 50.8486 74.7062 50.7086 74.8062H50.6886C50.5386 74.9162 50.3886 75.0062 50.2386 75.0962L50.1486 75.1462C50.0086 75.2362 49.8686 75.3162 49.7286 75.3962L49.6986 75.4162C49.5486 75.5062 49.3986 75.5862 49.2586 75.6762L49.1786 75.7262C49.0386 75.8062 48.9086 75.8862 48.7786 75.9562H48.7586C48.6186 76.0462 48.4786 76.1262 48.3386 76.2062L48.2686 76.2462C48.1386 76.3162 48.0186 76.3862 47.8986 76.4562H47.8786C47.7486 76.5362 47.6186 76.6062 47.4986 76.6662L47.4486 76.6962C47.2186 76.8162 47.0086 76.9362 46.8086 77.0362H46.7986C46.7186 77.0862 46.6386 77.1262 46.5586 77.1662L46.4986 77.1962C46.4386 77.2262 46.3786 77.2562 46.3286 77.2862L46.2686 77.3162C46.2086 77.3462 46.1586 77.3762 46.1086 77.3962H46.0786L46.0586 77.4162H46.0386C46.0386 77.4162 45.9186 77.4862 45.8086 77.5362L45.7286 77.5762C44.8986 77.9962 42.8386 79.0462 41.7986 79.5462L41.7486 79.5662L41.6686 79.6062L41.6086 79.6362L41.5486 79.6662L41.4686 79.7062L41.4186 79.7362L41.3586 79.7662H41.3286L41.2886 79.7962H41.2686L41.2286 79.8162H41.1886V79.8262C41.3986 79.5762 41.5986 79.3362 41.7986 79.1062C47.6986 72.2262 52.0386 70.4962 52.5386 70.3062H52.5786V70.2862C54.0786 69.7062 55.3886 70.1162 55.2986 70.8962V70.8762ZM78.7086 53.5462C78.7086 53.5462 78.7086 53.5662 78.7086 53.5862C78.7086 53.6262 78.6986 53.6662 78.6886 53.7162C78.6886 53.7162 78.6586 53.8062 78.6386 53.8462L78.6186 53.8862C78.6186 53.8862 78.5786 53.9562 78.5586 53.9962C78.5586 54.0062 78.5386 54.0262 78.5286 54.0362C78.4986 54.0862 78.4686 54.1362 78.4286 54.1862C78.3886 54.2362 78.3486 54.2962 78.2986 54.3462C78.2886 54.3662 78.2686 54.3762 78.2586 54.3962C78.2186 54.4362 78.1786 54.4762 78.1386 54.5162C78.1186 54.5362 78.1086 54.5462 78.0886 54.5662C78.0286 54.6262 77.9686 54.6862 77.8986 54.7462C77.8286 54.8062 77.7586 54.8762 77.6786 54.9362C77.6586 54.9562 77.6286 54.9762 77.6086 54.9962C77.5486 55.0462 77.4886 55.0962 77.4286 55.1362C77.3986 55.1562 77.3786 55.1762 77.3486 55.1962C77.2586 55.2662 77.1686 55.3362 77.0786 55.4062C76.9786 55.4862 76.8786 55.5562 76.7786 55.6262C76.7486 55.6462 76.7086 55.6762 76.6786 55.6962C76.5986 55.7562 76.5186 55.8062 76.4286 55.8662C76.3886 55.8862 76.3586 55.9162 76.3186 55.9362C76.1986 56.0162 76.0786 56.0862 75.9586 56.1662H75.9386C75.8086 56.2562 75.6786 56.3462 75.5386 56.4262C75.4986 56.4562 75.4486 56.4762 75.4086 56.5062C75.2986 56.5662 75.1986 56.6362 75.0886 56.6962C75.0386 56.7262 74.9986 56.7462 74.9486 56.7762C74.7986 56.8662 74.6386 56.9562 74.4786 57.0462H74.4686C74.3086 57.1462 74.1386 57.2462 73.9586 57.3362C73.9086 57.3662 73.8486 57.3962 73.7986 57.4262C73.6686 57.4962 73.5386 57.5762 73.3986 57.6462C73.3386 57.6762 73.2786 57.7062 73.2186 57.7462C73.0286 57.8462 72.8386 57.9562 72.6386 58.0562H72.6286C72.4286 58.1662 72.2186 58.2762 72.0086 58.3862C71.9386 58.4162 71.8786 58.4562 71.8086 58.4862C71.6486 58.5662 71.4886 58.6562 71.3286 58.7362C71.2586 58.7762 71.1886 58.8062 71.1186 58.8462C70.8986 58.9562 70.6686 59.0762 70.4286 59.1962H70.4086C70.3286 59.2462 70.2486 59.2862 70.1786 59.3162C70.1586 59.3262 70.1386 59.3362 70.1086 59.3462C70.0586 59.3662 70.0186 59.3862 69.9686 59.4062C69.9486 59.4162 69.9186 59.4262 69.8986 59.4362C69.8586 59.4562 69.8286 59.4662 69.7886 59.4762L69.7286 59.4962C69.7286 59.4962 69.6686 59.5162 69.6486 59.5262L69.5986 59.5462C69.5986 59.5462 69.5486 59.5562 69.5286 59.5662C69.5186 59.5662 69.4986 59.5662 69.4886 59.5662C69.4686 59.5662 69.4486 59.5662 69.4386 59.5662C69.4386 59.5662 69.4186 59.5662 69.4086 59.5662C69.3886 59.5662 69.3786 59.5662 69.3686 59.5662H69.3486C69.3486 59.5662 69.3086 59.5262 69.3086 59.4962C69.3086 59.4962 69.3086 59.4862 69.3086 59.4762C69.3086 59.4662 69.3086 59.4562 69.3086 59.4462C69.3086 59.4462 69.3086 59.4262 69.3186 59.4162C69.3186 59.4062 69.3186 59.3962 69.3286 59.3762C69.3286 59.3662 69.3386 59.3462 69.3486 59.3362C69.3486 59.3262 69.3586 59.3162 69.3686 59.3062C69.3686 59.2862 69.3886 59.2662 69.3986 59.2462L69.4186 59.2162C69.4186 59.2162 69.4486 59.1662 69.4686 59.1462L69.4886 59.1162C69.4886 59.1162 69.5286 59.0562 69.5486 59.0262L69.5686 59.0062C69.5686 59.0062 69.6186 58.9362 69.6486 58.8962C70.4186 57.8862 72.1786 56.0562 72.0886 55.1562C72.0886 55.1362 72.0886 55.1062 72.0786 55.0862C72.0586 55.0062 72.0386 54.9462 71.9886 54.8962L71.9686 54.8762C71.9686 54.8762 71.8786 54.7862 71.8086 54.7562L71.7686 54.7362C71.7686 54.7362 71.7286 54.7162 71.7086 54.7062C71.6886 54.7062 71.6786 54.6962 71.6586 54.6862C71.6186 54.6762 71.5886 54.6662 71.5486 54.6562C71.5286 54.6562 71.5086 54.6562 71.4786 54.6462C71.4486 54.6462 71.4286 54.6462 71.3986 54.6362C71.3686 54.6362 71.3386 54.6362 71.3086 54.6362C71.2786 54.6362 71.2386 54.6362 71.2086 54.6362C71.1686 54.6362 71.1186 54.6362 71.0686 54.6362C71.0386 54.6362 71.0086 54.6362 70.9786 54.6362C70.9386 54.6362 70.8986 54.6362 70.8486 54.6362C70.8186 54.6362 70.7886 54.6362 70.7586 54.6362C70.6886 54.6362 70.6186 54.6462 70.5386 54.6562C70.5086 54.6562 70.4786 54.6562 70.4486 54.6662C70.3886 54.6662 70.3286 54.6862 70.2686 54.6962C70.2386 54.6962 70.1986 54.7062 70.1686 54.7162C70.0786 54.7362 69.9886 54.7462 69.8886 54.7662L69.8186 54.7862C69.7386 54.8062 69.6486 54.8262 69.5686 54.8462L69.4586 54.8762C69.3586 54.8962 69.2586 54.9262 69.1586 54.9562H69.1086C68.9886 55.0062 68.8586 55.0362 68.7286 55.0762C68.6886 55.0862 68.6486 55.0962 68.6086 55.1162C68.4986 55.1462 68.3886 55.1862 68.2686 55.2162L68.1686 55.2462C68.0286 55.2962 67.8786 55.3362 67.7186 55.3862L67.5986 55.4262C67.4686 55.4662 67.3386 55.5162 67.2086 55.5562L67.0786 55.6062C66.9086 55.6662 66.7386 55.7262 66.5586 55.7962L66.4686 55.8262C66.3086 55.8862 66.1486 55.9462 65.9886 56.0062L65.8286 56.0662C65.6286 56.1362 65.4286 56.2162 65.2186 56.2962C65.0186 56.3762 64.8286 56.4562 64.6386 56.5362C64.3286 56.6762 64.0386 56.8262 63.7686 56.9862C63.5086 57.1362 63.2686 57.2862 63.0386 57.4362C62.5286 57.7762 62.0886 58.1262 61.7286 58.4462L61.6686 58.4962C61.4786 58.6662 61.3086 58.8262 61.1686 58.9762C60.7186 59.4262 60.4986 59.7362 60.5086 59.7062C61.9686 54.4562 72.2086 50.6862 77.6286 52.5162C78.1386 52.6862 78.4886 52.8962 78.6386 53.1662C78.6586 53.2062 78.6786 53.2462 78.6886 53.2862C78.6986 53.3262 78.7086 53.3562 78.7086 53.3962V53.4262C78.7086 53.4262 78.7086 53.4862 78.7086 53.5162V53.5462ZM72.7086 67.4862C69.2086 71.5762 69.3586 77.4162 67.4986 75.4462C64.8986 72.6962 65.5586 70.7862 68.3586 67.4862C73.2786 61.6862 87.5986 56.9162 88.4286 57.4762C88.4286 57.4762 78.6286 60.5862 72.7186 67.4862H72.7086ZM122.229 68.2462V74.4662H116.919C116.679 74.4662 116.479 74.2662 116.479 74.0262V73.4262C116.479 72.3962 115.779 72.2162 115.319 72.6962C115.429 72.8562 115.499 73.7062 115.499 74.0362V77.0262C115.499 77.9562 113.749 78.1562 113.749 76.9062L113.999 74.4562H113.659V73.4262C113.659 72.3962 112.959 72.2162 112.499 72.6962C112.609 72.8562 112.669 73.0962 112.679 73.4262V77.0262C112.679 77.9562 110.929 78.1562 110.929 76.9062L111.149 74.9362C111.179 74.6762 110.969 74.4562 110.709 74.4562H109.729C109.729 74.4562 109.729 74.5762 109.729 74.6362V76.7062C109.729 77.4462 108.329 77.6062 108.329 76.6062L108.579 74.6262C108.589 74.5762 108.599 74.4962 108.619 74.4462H103.139C102.899 74.4462 102.699 74.2462 102.699 74.0062V68.2162C102.699 67.9762 102.899 67.7762 103.149 67.7762L121.799 67.7962C122.039 67.7962 122.239 67.9962 122.239 68.2362L122.229 68.2462ZM109.029 65.2862C109.029 65.2862 109.119 65.3562 109.149 65.4062C109.749 66.2862 108.779 67.2462 107.899 66.6362C107.859 66.6062 107.819 66.5662 107.789 66.5262C107.209 65.6662 108.139 64.7362 109.029 65.2962V65.2862ZM117.009 65.2962C117.009 65.2962 117.099 65.3662 117.129 65.4162C117.729 66.2962 116.759 67.2462 115.879 66.6462C115.839 66.6162 115.799 66.5762 115.769 66.5262C115.189 65.6562 116.129 64.7262 117.009 65.2962ZM117.999 65.4362C117.999 65.4362 118.069 65.3562 118.109 65.3262C118.799 64.8362 119.549 65.3262 119.549 65.9762C119.549 66.4462 119.159 66.8362 118.689 66.8262C118.039 66.8262 117.559 66.1062 117.999 65.4362ZM102.369 61.3162C102.409 61.1162 102.589 60.9662 102.789 60.9662L121.549 60.6662C121.819 60.6662 122.029 60.8962 121.989 61.1562L121.659 63.6662L101.869 63.7462L102.359 61.3162H102.369ZM90.8486 58.9262C89.2786 59.4762 88.6286 58.9862 89.7586 58.5962C92.0586 57.7962 93.1086 56.1862 92.6386 54.8662C92.1686 53.5462 90.3586 53.0162 88.0586 53.8162C86.9286 54.2062 87.2286 53.3762 88.7986 52.8362C91.4886 51.8962 94.3786 52.1462 94.9586 53.8562C95.7286 56.1462 93.5486 57.9962 90.8586 58.9362L90.8486 58.9262Z" fill="#BA0C2F"/>
<path d="M194.879 50.1862C194.879 51.1162 194.689 51.9362 194.319 52.6362C193.949 53.3362 193.429 53.9262 192.779 54.4062C192.129 54.8862 191.369 55.2462 190.509 55.4962C189.649 55.7462 188.729 55.8662 187.759 55.8662H177.109V33.8162H188.909C189.679 33.8162 190.369 33.9862 190.989 34.3162C191.609 34.6462 192.139 35.0762 192.569 35.6062C192.999 36.1362 193.339 36.7362 193.579 37.4062C193.819 38.0762 193.939 38.7562 193.939 39.4362C193.939 40.5162 193.669 41.5262 193.129 42.4662C192.589 43.4062 191.809 44.1062 190.769 44.5662C192.029 44.9362 193.029 45.6062 193.769 46.5662C194.499 47.5262 194.869 48.7362 194.869 50.1862H194.879ZM181.399 37.4862V43.0462H187.109C187.829 43.0462 188.449 42.7962 188.959 42.2962C189.469 41.7962 189.719 41.1162 189.719 40.2462C189.719 39.3762 189.489 38.7262 189.019 38.2262C188.549 37.7262 187.979 37.4762 187.299 37.4762H181.399V37.4862ZM190.559 49.3762C190.559 48.9862 190.489 48.6062 190.359 48.2462C190.219 47.8862 190.039 47.5662 189.819 47.2962C189.589 47.0262 189.319 46.8162 189.009 46.6562C188.699 46.4962 188.359 46.4262 187.989 46.4262H181.409V52.2362H187.779C188.169 52.2362 188.539 52.1662 188.879 52.0162C189.219 51.8762 189.519 51.6662 189.769 51.4062C190.019 51.1462 190.209 50.8462 190.359 50.4862C190.499 50.1362 190.579 49.7662 190.579 49.3662L190.559 49.3762Z" fill="black"/>
<path d="M206.369 33.8262H210.159L218.539 55.8762H214.129L212.079 50.3762H204.379L202.359 55.8762H197.949L206.359 33.8262H206.369ZM211.309 47.3662L208.269 38.7062L205.099 47.3662H211.309V47.3662Z" fill="black"/>
<path d="M223.289 55.8662V33.8162H227.579V52.1062H238.819V55.8662H223.289Z" fill="black"/>
<path d="M243.759 55.8662V33.8162H248.049V52.1062H259.289V55.8662H243.759V55.8662Z" fill="black"/>
<path d="M286.299 39.5962C286.159 39.4562 285.889 39.2562 285.509 39.0062C285.129 38.7562 284.659 38.5162 284.109 38.2762C283.559 38.0362 282.969 37.8362 282.319 37.6662C281.679 37.4962 281.029 37.4162 280.359 37.4162C279.179 37.4162 278.299 37.6362 277.719 38.0662C277.139 38.4962 276.849 39.1162 276.849 39.8962C276.849 40.3562 276.959 40.7262 277.179 41.0262C277.399 41.3262 277.709 41.5862 278.129 41.8162C278.539 42.0462 279.069 42.2462 279.699 42.4362C280.329 42.6262 281.059 42.8162 281.889 43.0262C282.969 43.3162 283.939 43.6262 284.819 43.9562C285.699 44.2862 286.439 44.7062 287.059 45.1962C287.669 45.6962 288.139 46.2862 288.469 46.9862C288.799 47.6762 288.969 48.5362 288.969 49.5462C288.969 50.7262 288.749 51.7362 288.299 52.5762C287.849 53.4162 287.249 54.0962 286.499 54.6062C285.739 55.1262 284.869 55.5062 283.889 55.7362C282.909 55.9762 281.879 56.0962 280.799 56.0962C279.139 56.0962 277.509 55.8462 275.889 55.3462C274.279 54.8462 272.829 54.1462 271.539 53.2362L273.429 49.5362C273.619 49.7262 273.949 49.9662 274.439 50.2662C274.929 50.5662 275.499 50.8662 276.159 51.1662C276.819 51.4662 277.559 51.7162 278.359 51.9262C279.169 52.1362 279.999 52.2362 280.839 52.2362C283.199 52.2362 284.379 51.4762 284.379 49.9662C284.379 49.4862 284.249 49.0862 283.979 48.7562C283.709 48.4262 283.329 48.1362 282.829 47.8862C282.329 47.6362 281.729 47.4062 281.029 47.2062C280.329 46.9962 279.539 46.7762 278.669 46.5262C277.609 46.2362 276.699 45.9162 275.919 45.5762C275.139 45.2362 274.499 44.8262 273.979 44.3662C273.459 43.8962 273.069 43.3662 272.819 42.7462C272.559 42.1362 272.429 41.4062 272.429 40.5562C272.429 39.4362 272.639 38.4462 273.049 37.5762C273.459 36.7062 274.039 35.9862 274.769 35.4062C275.499 34.8262 276.359 34.3862 277.329 34.0862C278.299 33.7862 279.349 33.6362 280.469 33.6362C282.019 33.6362 283.449 33.8762 284.749 34.3662C286.049 34.8562 287.189 35.4262 288.169 36.0862L286.279 39.5662L286.299 39.5962Z" fill="black"/>
<path d="M178.269 119.066V106.996H180.619V119.066H178.269Z" fill="black"/>
<path d="M191.269 119.066H188.989V114.066C188.989 113.356 188.869 112.826 188.619 112.506C188.369 112.176 188.019 112.016 187.579 112.016C187.349 112.016 187.119 112.056 186.879 112.156C186.639 112.246 186.419 112.376 186.209 112.536C185.999 112.696 185.809 112.896 185.639 113.126C185.469 113.356 185.349 113.606 185.269 113.876V119.076H182.989V110.166H185.049V111.816C185.379 111.246 185.849 110.806 186.479 110.486C187.099 110.166 187.809 110.006 188.589 110.006C189.139 110.006 189.599 110.106 189.949 110.316C190.299 110.516 190.569 110.786 190.769 111.116C190.959 111.446 191.099 111.816 191.169 112.236C191.239 112.656 191.279 113.076 191.279 113.516V119.076L191.269 119.066Z" fill="black"/>
<path d="M193.809 119.066V112.366H192.639V110.636H193.809V110.096C193.809 108.986 194.079 108.106 194.609 107.456C195.139 106.806 195.869 106.486 196.789 106.486C197.509 106.486 198.249 106.666 198.979 107.016L198.519 108.736C198.349 108.646 198.149 108.566 197.919 108.506C197.689 108.446 197.479 108.416 197.279 108.416C196.489 108.416 196.089 108.946 196.089 110.016V110.646H198.269V112.376H196.089V119.076H193.809V119.066Z" fill="black"/>
<path d="M203.309 119.236C202.589 119.236 201.929 119.116 201.349 118.866C200.769 118.616 200.279 118.276 199.879 117.856C199.479 117.436 199.169 116.936 198.949 116.386C198.729 115.826 198.629 115.246 198.629 114.636C198.629 114.026 198.739 113.426 198.949 112.866C199.159 112.316 199.469 111.816 199.879 111.396C200.279 110.976 200.769 110.636 201.349 110.386C201.929 110.136 202.579 110.016 203.309 110.016C204.039 110.016 204.679 110.136 205.259 110.386C205.829 110.636 206.319 110.976 206.719 111.396C207.119 111.816 207.429 112.316 207.649 112.866C207.869 113.426 207.969 114.006 207.969 114.636C207.969 115.266 207.859 115.836 207.649 116.386C207.439 116.936 207.129 117.426 206.729 117.856C206.329 118.286 205.849 118.616 205.269 118.866C204.689 119.116 204.039 119.236 203.309 119.236ZM200.979 114.626C200.979 115.026 201.039 115.386 201.159 115.706C201.279 116.026 201.439 116.306 201.649 116.546C201.859 116.786 202.109 116.966 202.389 117.096C202.669 117.226 202.979 117.296 203.309 117.296C203.639 117.296 203.939 117.226 204.229 117.096C204.509 116.966 204.759 116.786 204.969 116.546C205.179 116.306 205.339 116.026 205.459 115.696C205.579 115.366 205.639 115.006 205.639 114.606C205.639 114.206 205.579 113.866 205.459 113.536C205.339 113.206 205.179 112.926 204.969 112.686C204.759 112.446 204.509 112.266 204.229 112.136C203.949 112.006 203.639 111.936 203.309 111.936C202.979 111.936 202.679 112.006 202.389 112.136C202.099 112.266 201.859 112.456 201.649 112.696C201.439 112.936 201.279 113.216 201.159 113.546C201.039 113.876 200.979 114.236 200.979 114.616V114.626Z" fill="black"/>
<path d="M214.889 112.136C214.199 112.146 213.578 112.276 213.038 112.536C212.498 112.786 212.108 113.176 211.868 113.686V119.076H209.589V110.166H211.678V112.066C211.838 111.756 212.029 111.486 212.239 111.246C212.459 111.006 212.689 110.786 212.939 110.606C213.189 110.426 213.439 110.286 213.699 110.186C213.949 110.086 214.199 110.046 214.439 110.046H214.719C214.779 110.046 214.838 110.046 214.898 110.066V112.136H214.889Z" fill="black"/>
<path d="M230.079 119.066H227.799V114.066C227.799 113.356 227.678 112.826 227.428 112.506C227.188 112.176 226.849 112.016 226.419 112.016C225.969 112.016 225.539 112.186 225.139 112.536C224.739 112.886 224.458 113.336 224.288 113.886V119.066H222.008V114.066C222.008 113.356 221.889 112.826 221.639 112.506C221.399 112.176 221.059 112.016 220.629 112.016C220.199 112.016 219.769 112.186 219.359 112.526C218.949 112.866 218.669 113.316 218.499 113.866V119.066H216.219V110.156H218.279V111.806C218.609 111.226 219.059 110.786 219.629 110.476C220.199 110.166 220.859 110.006 221.589 110.006C222.319 110.006 222.919 110.186 223.319 110.546C223.729 110.906 223.989 111.356 224.099 111.886C224.459 111.276 224.919 110.806 225.479 110.486C226.029 110.166 226.669 110.006 227.379 110.006C227.919 110.006 228.369 110.106 228.719 110.316C229.069 110.526 229.338 110.786 229.538 111.116C229.728 111.446 229.869 111.816 229.939 112.236C230.009 112.656 230.049 113.076 230.049 113.516V119.076L230.079 119.066Z" fill="black"/>
<path d="M234.589 119.236C234.159 119.236 233.759 119.166 233.379 119.026C233.009 118.886 232.679 118.686 232.409 118.436C232.139 118.186 231.929 117.886 231.769 117.546C231.609 117.206 231.539 116.836 231.539 116.426C231.539 116.016 231.629 115.616 231.819 115.266C232.009 114.906 232.269 114.606 232.599 114.356C232.929 114.106 233.329 113.906 233.799 113.766C234.269 113.626 234.769 113.556 235.329 113.556C235.729 113.556 236.109 113.586 236.489 113.656C236.869 113.726 237.209 113.816 237.499 113.946V113.436C237.499 112.846 237.329 112.396 236.999 112.076C236.669 111.756 236.169 111.596 235.509 111.596C235.029 111.596 234.569 111.686 234.119 111.856C233.669 112.026 233.199 112.276 232.729 112.606L232.029 111.156C233.169 110.396 234.409 110.016 235.739 110.016C237.069 110.016 238.009 110.326 238.719 110.956C239.429 111.586 239.779 112.496 239.779 113.686V116.456C239.779 116.696 239.819 116.866 239.909 116.966C239.989 117.066 240.129 117.126 240.329 117.136V119.076C239.939 119.156 239.609 119.196 239.329 119.196C238.899 119.196 238.569 119.096 238.329 118.906C238.089 118.716 237.949 118.456 237.899 118.146L237.849 117.656C237.449 118.176 236.969 118.576 236.409 118.846C235.839 119.116 235.239 119.256 234.589 119.256V119.236ZM235.239 117.566C235.629 117.566 235.989 117.496 236.339 117.366C236.689 117.236 236.959 117.046 237.149 116.826C237.399 116.636 237.519 116.416 237.519 116.176V115.156C237.249 115.056 236.949 114.976 236.639 114.906C236.319 114.846 236.019 114.816 235.719 114.816C235.129 114.816 234.649 114.946 234.269 115.216C233.899 115.486 233.709 115.816 233.709 116.226C233.709 116.616 233.859 116.936 234.149 117.186C234.439 117.446 234.809 117.566 235.239 117.566V117.566Z" fill="black"/>
<path d="M247.269 118.606C246.959 118.746 246.589 118.876 246.149 119.016C245.709 119.156 245.239 119.216 244.759 119.216C244.439 119.216 244.139 119.176 243.869 119.096C243.589 119.016 243.349 118.886 243.139 118.716C242.929 118.536 242.759 118.316 242.639 118.036C242.519 117.756 242.449 117.416 242.449 117.026V111.906H241.279V110.156H242.449V107.266H244.729V110.156H246.599V111.906H244.729V116.256C244.729 116.576 244.809 116.796 244.979 116.926C245.149 117.056 245.349 117.126 245.579 117.126C245.809 117.126 246.049 117.086 246.279 117.006C246.509 116.926 246.689 116.856 246.819 116.806L247.279 118.606H247.269Z" fill="black"/>
<path d="M248.549 108.916V106.656H250.829V108.916H248.549ZM248.549 119.066V110.156H250.829V119.066H248.549Z" fill="black"/>
<path d="M257.079 119.236C256.359 119.236 255.699 119.116 255.119 118.866C254.539 118.616 254.049 118.276 253.649 117.856C253.249 117.436 252.939 116.936 252.719 116.386C252.499 115.826 252.399 115.246 252.399 114.636C252.399 114.026 252.509 113.426 252.719 112.866C252.929 112.316 253.239 111.816 253.649 111.396C254.049 110.976 254.539 110.636 255.119 110.386C255.699 110.136 256.349 110.016 257.079 110.016C257.809 110.016 258.449 110.136 259.029 110.386C259.599 110.636 260.089 110.976 260.489 111.396C260.889 111.816 261.199 112.316 261.419 112.866C261.639 113.426 261.739 114.006 261.739 114.636C261.739 115.266 261.629 115.836 261.419 116.386C261.209 116.936 260.899 117.426 260.499 117.856C260.099 118.286 259.619 118.616 259.039 118.866C258.459 119.116 257.809 119.236 257.079 119.236ZM254.749 114.626C254.749 115.026 254.809 115.386 254.929 115.706C255.049 116.026 255.209 116.306 255.419 116.546C255.629 116.786 255.879 116.966 256.159 117.096C256.439 117.226 256.749 117.296 257.079 117.296C257.409 117.296 257.709 117.226 257.999 117.096C258.279 116.966 258.529 116.786 258.739 116.546C258.949 116.306 259.109 116.026 259.229 115.696C259.349 115.366 259.409 115.006 259.409 114.606C259.409 114.206 259.349 113.866 259.229 113.536C259.109 113.206 258.949 112.926 258.739 112.686C258.529 112.446 258.279 112.266 257.999 112.136C257.719 112.006 257.409 111.936 257.079 111.936C256.749 111.936 256.449 112.006 256.159 112.136C255.869 112.266 255.629 112.456 255.419 112.696C255.209 112.936 255.049 113.216 254.929 113.546C254.809 113.876 254.749 114.236 254.749 114.616V114.626Z" fill="black"/>
<path d="M271.629 119.066H269.349V114.066C269.349 113.356 269.229 112.826 268.979 112.506C268.729 112.176 268.379 112.016 267.939 112.016C267.709 112.016 267.478 112.056 267.238 112.156C266.998 112.256 266.779 112.376 266.569 112.536C266.359 112.696 266.169 112.896 265.999 113.126C265.829 113.356 265.709 113.606 265.629 113.876V119.076H263.349V110.166H265.409V111.816C265.739 111.246 266.209 110.806 266.839 110.486C267.469 110.166 268.169 110.006 268.949 110.006C269.499 110.006 269.959 110.106 270.309 110.316C270.659 110.516 270.929 110.786 271.129 111.116C271.319 111.446 271.459 111.816 271.529 112.236C271.599 112.656 271.639 113.076 271.639 113.516V119.076L271.629 119.066Z" fill="black"/>
<path d="M286.639 109.056H282.779V119.066H280.449V109.056H276.589V106.996H286.639V109.056Z" fill="black"/>
<path d="M290.189 119.236C289.479 119.236 288.829 119.116 288.249 118.866C287.669 118.626 287.179 118.286 286.769 117.866C286.359 117.446 286.049 116.956 285.829 116.406C285.609 115.856 285.499 115.266 285.499 114.656C285.499 114.046 285.609 113.426 285.819 112.866C286.029 112.306 286.349 111.816 286.759 111.386C287.169 110.966 287.659 110.626 288.249 110.376C288.829 110.126 289.489 110.006 290.209 110.006C290.929 110.006 291.579 110.126 292.159 110.376C292.729 110.626 293.219 110.956 293.619 111.376C294.019 111.796 294.329 112.286 294.539 112.836C294.749 113.386 294.849 113.966 294.849 114.566C294.849 114.716 294.849 114.856 294.849 114.986C294.849 115.126 294.829 115.236 294.809 115.326H287.919C287.949 115.676 288.039 115.986 288.169 116.256C288.309 116.526 288.479 116.756 288.699 116.956C288.919 117.156 289.159 117.296 289.429 117.396C289.699 117.496 289.979 117.546 290.279 117.546C290.729 117.546 291.159 117.436 291.559 117.216C291.959 116.996 292.239 116.706 292.389 116.336L294.349 116.876C294.019 117.556 293.499 118.116 292.779 118.546C292.059 118.976 291.199 119.196 290.199 119.196L290.189 119.236ZM292.499 113.866C292.439 113.196 292.199 112.666 291.759 112.256C291.319 111.846 290.789 111.656 290.169 111.656C289.859 111.656 289.579 111.706 289.309 111.816C289.039 111.926 288.809 112.076 288.599 112.266C288.389 112.456 288.229 112.686 288.099 112.966C287.969 113.236 287.889 113.536 287.869 113.866H292.489H292.499Z" fill="black"/>
<path d="M295.769 114.616C295.769 113.996 295.879 113.406 296.089 112.846C296.299 112.286 296.619 111.806 297.029 111.386C297.439 110.966 297.929 110.636 298.509 110.386C299.089 110.136 299.739 110.016 300.469 110.016C301.439 110.016 302.269 110.226 302.959 110.646C303.649 111.066 304.159 111.616 304.499 112.296L302.269 112.976C302.079 112.646 301.819 112.396 301.509 112.216C301.199 112.036 300.839 111.956 300.459 111.956C300.129 111.956 299.829 112.026 299.539 112.156C299.259 112.286 299.009 112.466 298.799 112.696C298.589 112.926 298.429 113.206 298.309 113.536C298.189 113.866 298.129 114.226 298.129 114.626C298.129 115.026 298.189 115.386 298.319 115.716C298.439 116.046 298.609 116.326 298.819 116.566C299.029 116.806 299.279 116.986 299.559 117.116C299.839 117.246 300.139 117.316 300.459 117.316C300.869 117.316 301.239 117.216 301.589 117.006C301.939 116.796 302.179 116.556 302.309 116.256L304.539 116.936C304.229 117.616 303.729 118.176 303.029 118.606C302.329 119.036 301.479 119.256 300.499 119.256C299.779 119.256 299.119 119.136 298.549 118.886C297.969 118.636 297.479 118.296 297.069 117.876C296.659 117.456 296.349 116.956 296.129 116.396C295.909 115.836 295.799 115.246 295.799 114.636L295.769 114.616Z" fill="black"/>
<path d="M314.279 119.066H311.999V114.066C311.999 113.366 311.869 112.846 311.609 112.506C311.349 112.176 310.979 112.006 310.499 112.006C310.299 112.006 310.079 112.046 309.849 112.146C309.619 112.236 309.409 112.366 309.199 112.526C308.989 112.686 308.809 112.886 308.639 113.116C308.469 113.346 308.349 113.596 308.269 113.866V119.066H305.989V106.656H308.269V111.806C308.599 111.226 309.039 110.786 309.599 110.476C310.159 110.166 310.779 110.006 311.459 110.006C312.039 110.006 312.509 110.106 312.869 110.306C313.229 110.506 313.519 110.766 313.719 111.096C313.919 111.426 314.059 111.796 314.139 112.216C314.219 112.636 314.259 113.066 314.259 113.506V119.066H314.279Z" fill="black"/>
<path d="M324.639 119.066H322.359V114.066C322.359 113.356 322.239 112.826 321.989 112.506C321.739 112.176 321.399 112.016 320.949 112.016C320.719 112.016 320.489 112.056 320.249 112.156C320.009 112.246 319.789 112.376 319.579 112.536C319.369 112.696 319.179 112.896 319.009 113.126C318.839 113.356 318.719 113.606 318.639 113.876V119.076H316.359V110.166H318.419V111.816C318.749 111.246 319.219 110.806 319.849 110.486C320.469 110.166 321.179 110.006 321.959 110.006C322.519 110.006 322.969 110.106 323.319 110.316C323.669 110.516 323.939 110.786 324.139 111.116C324.329 111.446 324.469 111.816 324.539 112.236C324.609 112.656 324.649 113.076 324.649 113.516V119.076L324.639 119.066Z" fill="black"/>
<path d="M330.819 119.236C330.089 119.236 329.439 119.116 328.859 118.866C328.279 118.616 327.789 118.276 327.389 117.856C326.989 117.436 326.679 116.936 326.459 116.386C326.249 115.826 326.139 115.246 326.139 114.636C326.139 114.026 326.249 113.426 326.459 112.866C326.669 112.316 326.979 111.816 327.389 111.396C327.799 110.976 328.279 110.636 328.859 110.386C329.439 110.136 330.089 110.016 330.819 110.016C331.549 110.016 332.189 110.136 332.769 110.386C333.339 110.636 333.829 110.976 334.229 111.396C334.629 111.816 334.939 112.316 335.159 112.866C335.369 113.426 335.479 114.006 335.479 114.636C335.479 115.266 335.369 115.836 335.159 116.386C334.939 116.936 334.639 117.426 334.239 117.856C333.839 118.286 333.359 118.616 332.779 118.866C332.199 119.116 331.549 119.236 330.819 119.236ZM328.489 114.626C328.489 115.026 328.549 115.386 328.669 115.706C328.789 116.026 328.949 116.306 329.159 116.546C329.369 116.786 329.619 116.966 329.899 117.096C330.179 117.226 330.489 117.296 330.819 117.296C331.149 117.296 331.449 117.226 331.739 117.096C332.019 116.966 332.269 116.786 332.479 116.546C332.689 116.306 332.849 116.026 332.969 115.696C333.089 115.366 333.149 115.006 333.149 114.606C333.149 114.206 333.089 113.866 332.969 113.536C332.849 113.206 332.689 112.926 332.479 112.686C332.269 112.446 332.019 112.266 331.739 112.136C331.459 112.006 331.149 111.936 330.819 111.936C330.489 111.936 330.189 112.006 329.899 112.136C329.619 112.276 329.369 112.456 329.159 112.696C328.949 112.936 328.789 113.216 328.669 113.546C328.549 113.876 328.489 114.236 328.489 114.616V114.626Z" fill="black"/>
<path d="M337.078 106.656H339.358V116.206C339.358 116.536 339.439 116.786 339.599 116.976C339.759 117.156 339.979 117.246 340.279 117.246C340.419 117.246 340.569 117.226 340.729 117.176C340.899 117.126 341.049 117.076 341.199 117.006L341.509 118.736C341.199 118.886 340.849 118.996 340.439 119.076C340.029 119.156 339.658 119.196 339.328 119.196C338.618 119.196 338.059 119.006 337.669 118.626C337.279 118.246 337.078 117.706 337.078 117.006V106.656V106.656Z" fill="black"/>
<path d="M346.689 119.236C345.959 119.236 345.309 119.116 344.729 118.866C344.149 118.616 343.659 118.276 343.259 117.856C342.859 117.436 342.549 116.936 342.329 116.386C342.119 115.826 342.009 115.246 342.009 114.636C342.009 114.026 342.119 113.426 342.329 112.866C342.539 112.316 342.849 111.816 343.259 111.396C343.669 110.976 344.149 110.636 344.729 110.386C345.309 110.136 345.959 110.016 346.689 110.016C347.419 110.016 348.059 110.136 348.639 110.386C349.209 110.636 349.699 110.976 350.099 111.396C350.499 111.816 350.809 112.316 351.029 112.866C351.239 113.426 351.349 114.006 351.349 114.636C351.349 115.266 351.239 115.836 351.029 116.386C350.809 116.936 350.509 117.426 350.109 117.856C349.709 118.286 349.229 118.616 348.649 118.866C348.069 119.116 347.419 119.236 346.689 119.236ZM344.359 114.626C344.359 115.026 344.419 115.386 344.539 115.706C344.659 116.026 344.819 116.306 345.029 116.546C345.239 116.786 345.489 116.966 345.769 117.096C346.049 117.226 346.359 117.296 346.689 117.296C347.019 117.296 347.319 117.226 347.609 117.096C347.889 116.966 348.139 116.786 348.349 116.546C348.559 116.306 348.719 116.026 348.839 115.696C348.959 115.366 349.019 115.006 349.019 114.606C349.019 114.206 348.959 113.866 348.839 113.536C348.719 113.206 348.559 112.926 348.349 112.686C348.139 112.446 347.889 112.266 347.609 112.136C347.329 112.006 347.019 111.936 346.689 111.936C346.359 111.936 346.059 112.006 345.769 112.136C345.489 112.276 345.239 112.456 345.029 112.696C344.819 112.936 344.659 113.216 344.539 113.546C344.419 113.876 344.359 114.236 344.359 114.616V114.626Z" fill="black"/>
<path d="M356.439 119.116C355.839 119.116 355.289 118.996 354.809 118.756C354.319 118.516 353.899 118.196 353.539 117.776C353.179 117.366 352.909 116.886 352.719 116.336C352.529 115.786 352.429 115.216 352.429 114.606C352.429 113.956 352.529 113.356 352.739 112.806C352.939 112.246 353.229 111.766 353.589 111.346C353.949 110.926 354.389 110.596 354.899 110.356C355.409 110.116 355.969 109.996 356.579 109.996C357.269 109.996 357.879 110.156 358.399 110.466C358.919 110.776 359.349 111.196 359.689 111.716V110.156H361.679V118.636C361.679 119.296 361.559 119.886 361.309 120.406C361.059 120.926 360.719 121.366 360.279 121.736C359.839 122.106 359.319 122.376 358.719 122.566C358.109 122.756 357.449 122.856 356.739 122.856C355.769 122.856 354.949 122.696 354.279 122.376C353.609 122.056 353.049 121.596 352.569 121.006L353.809 119.796C354.149 120.216 354.579 120.546 355.089 120.786C355.609 121.026 356.149 121.146 356.729 121.146C357.079 121.146 357.419 121.096 357.739 121.006C358.059 120.906 358.349 120.756 358.599 120.556C358.849 120.356 359.049 120.096 359.189 119.776C359.329 119.456 359.399 119.086 359.399 118.656V117.536C359.109 118.046 358.689 118.436 358.159 118.716C357.629 118.996 357.049 119.136 356.439 119.136V119.116ZM357.199 117.296C357.449 117.296 357.689 117.256 357.909 117.176C358.139 117.096 358.349 116.986 358.539 116.856C358.729 116.726 358.899 116.566 359.049 116.376C359.199 116.196 359.309 116.006 359.389 115.796V113.676C359.189 113.156 358.869 112.736 358.429 112.416C357.989 112.096 357.539 111.936 357.059 111.936C356.709 111.936 356.389 112.016 356.109 112.166C355.829 112.316 355.579 112.526 355.379 112.776C355.179 113.026 355.019 113.326 354.909 113.656C354.799 113.986 354.749 114.326 354.749 114.676C354.749 115.026 354.809 115.376 354.939 115.696C355.059 116.016 355.239 116.286 355.459 116.526C355.679 116.766 355.939 116.946 356.229 117.086C356.519 117.226 356.849 117.286 357.199 117.286V117.296Z" fill="black"/>
<path d="M364.009 120.806C364.199 120.866 364.389 120.906 364.569 120.936C364.749 120.966 364.899 120.976 365.029 120.976C365.179 120.976 365.309 120.946 365.439 120.896C365.559 120.836 365.679 120.736 365.779 120.596C365.879 120.456 365.979 120.256 366.089 120.006C366.189 119.756 366.299 119.446 366.409 119.076L362.889 110.166H365.239L367.649 117.106L369.789 110.166H371.929L368.189 120.846C367.969 121.466 367.609 121.976 367.079 122.376C366.549 122.776 365.909 122.966 365.139 122.966C364.959 122.966 364.769 122.956 364.589 122.926C364.399 122.896 364.209 122.846 363.999 122.786V120.816L364.009 120.806Z" fill="black"/>
</svg>
